<svg xmlns="http://www.w3.org/2000/svg" viewBox="0 0 322.59 68.77"><defs><style>.cls-1{fill:#fff;}</style></defs><title>Ресурс 4</title><g id="Слой_2" data-name="Слой 2"><g id="Слой_1-2" data-name="Слой 1"><path class="cls-1" d="M81.74,2.06H94v18H96.3v6.35H94.19V22.22H79.93v4.23H77.81V20.1a2.55,2.55,0,0,0,1.87-.74,5.12,5.12,0,0,0,1.33-2,14.85,14.85,0,0,0,.73-5.28ZM84,4.18V12.1a16.77,16.77,0,0,1-.72,5.62,6.69,6.69,0,0,1-1.54,2.38H91.77V4.18Z"/><path class="cls-1" d="M98.78,9.68H101V18l8.58-9.25V22.22h-2.18V13.85l-8.58,9.24Z"/><path class="cls-1" d="M115.28,12.88l-1.51-1.24a5.06,5.06,0,0,1,1.6-1.57,5.32,5.32,0,0,1,2.75-.69,4.56,4.56,0,0,1,3,.87,3,3,0,0,1,1.08,2.39,2.89,2.89,0,0,1-1.42,2.63,2.7,2.7,0,0,1,1.45.81,3.23,3.23,0,0,1,.88,2.3,3.8,3.8,0,0,1-1.63,3.23,5.92,5.92,0,0,1-3.57,1,5.26,5.26,0,0,1-3.35-1.06,5.36,5.36,0,0,1-1.66-2.14l1.87-.79A3.15,3.15,0,0,0,115.85,20a3.34,3.34,0,0,0,2.05.64,3.67,3.67,0,0,0,2.12-.49,2,2,0,0,0,.88-1.75,1.62,1.62,0,0,0-.76-1.45,3.83,3.83,0,0,0-2-.42h-1.27v-2h1.05a3.05,3.05,0,0,0,1.64-.33,1.3,1.3,0,0,0,.66-1.15,1.62,1.62,0,0,0-.54-1.3,2.41,2.41,0,0,0-1.6-.45,3.27,3.27,0,0,0-1.73.48A3,3,0,0,0,115.28,12.88Z"/><path class="cls-1" d="M136,11.46V9.68h2.18V22.22H136V20.46a5.14,5.14,0,0,1-4.29,2.12,5.93,5.93,0,0,1-4.32-1.75,6.55,6.55,0,0,1-1.78-4.9,6.46,6.46,0,0,1,1.77-4.82,6,6,0,0,1,4.33-1.73A5.08,5.08,0,0,1,136,11.46ZM132,11.31A3.93,3.93,0,0,0,129,12.53a4.66,4.66,0,0,0-1.2,3.4,5.08,5.08,0,0,0,1.11,3.4,3.69,3.69,0,0,0,3,1.32,3.78,3.78,0,0,0,3-1.36A5,5,0,0,0,136.12,16a4.5,4.5,0,0,0-1.27-3.44A4.06,4.06,0,0,0,132,11.31Z"/><path class="cls-1" d="M142.29,9.68h2.17V18L153,8.71V22.22h-2.17V13.85l-8.58,9.24Zm1.08-5.41,1.82-.69a2.72,2.72,0,0,0,5.13,0l1.82.69a4.33,4.33,0,0,1-1.65,2.15,5.19,5.19,0,0,1-5.47,0A4.33,4.33,0,0,1,143.37,4.27Z"/><path class="cls-1" d="M157.15,22.22V9.68h2.18v5.13h5.92V9.68h2.17V22.22h-2.17V16.81h-5.92v5.41Z"/><path class="cls-1" d="M17.93,59.2a10.22,10.22,0,0,1-7.45,3A10.2,10.2,0,0,1,3,59.2a10.61,10.61,0,0,1,0-14.88,10.23,10.23,0,0,1,7.43-3,10.25,10.25,0,0,1,7.44,3,10.61,10.61,0,0,1,0,14.88ZM16.29,45.87a7.88,7.88,0,0,0-5.81-2.42,7.86,7.86,0,0,0-5.8,2.42,8.48,8.48,0,0,0,0,11.78,7.82,7.82,0,0,0,5.8,2.42,7.84,7.84,0,0,0,5.81-2.42,8.48,8.48,0,0,0,0-11.78Z"/><path class="cls-1" d="M34.2,40.67h2.42a4.22,4.22,0,0,1-1.13,1.89,5.23,5.23,0,0,1-1.45,1,10.68,10.68,0,0,1-1.53.48l-.73.16-.87.23-.79.24a5,5,0,0,0-.87.37,5.67,5.67,0,0,0-.73.45A6.3,6.3,0,0,0,26.66,48a8.67,8.67,0,0,0-.77,3.31H26A4.89,4.89,0,0,1,30.52,49a6.24,6.24,0,0,1,4.66,1.91A6.48,6.48,0,0,1,37,55.6a6.33,6.33,0,0,1-1.9,4.71,6.77,6.77,0,0,1-5,1.88,6.14,6.14,0,0,1-4.32-1.57q-2.12-1.93-2.11-6.47,0-7.89,3.56-10.33c.18-.12.38-.24.58-.35a4.89,4.89,0,0,1,.65-.3l.59-.24a3.19,3.19,0,0,1,.68-.22l.6-.15.66-.15.62-.13a5.52,5.52,0,0,0,1.76-.65A2,2,0,0,0,34.2,40.67Zm-.68,11.49a4.54,4.54,0,0,0-6.25,0A4.57,4.57,0,0,0,26,55.6,4.5,4.5,0,0,0,27.28,59a4.53,4.53,0,0,0,6.23,0,5.18,5.18,0,0,0,0-6.85Z"/><path class="cls-1" d="M42.54,60.07v8.7H40.36V49.29h2.18V51A5.28,5.28,0,0,1,46.83,49a5.51,5.51,0,0,1,4.46,2,7.12,7.12,0,0,1,1.64,4.67,6.92,6.92,0,0,1-1.63,4.64,5.46,5.46,0,0,1-4.38,1.92A5.26,5.26,0,0,1,42.54,60.07Zm4.08.18a3.65,3.65,0,0,0,3-1.34,5,5,0,0,0,1.12-3.28,4.72,4.72,0,0,0-1.24-3.44,3.88,3.88,0,0,0-2.87-1.27,4,4,0,0,0-2.9,1.27,4.58,4.58,0,0,0-1.27,3.41,4.91,4.91,0,0,0,1.16,3.31A3.82,3.82,0,0,0,46.62,60.25Z"/><path class="cls-1" d="M65.86,51.07V49.29H68V61.82H65.86V60.07a5.14,5.14,0,0,1-4.29,2.12,5.94,5.94,0,0,1-4.32-1.76,6.53,6.53,0,0,1-1.78-4.89,6.46,6.46,0,0,1,1.77-4.82A5.94,5.94,0,0,1,61.57,49,5.07,5.07,0,0,1,65.86,51.07Zm-4-.15a4,4,0,0,0-2.92,1.22,4.65,4.65,0,0,0-1.19,3.4,5.09,5.09,0,0,0,1.1,3.4,4.08,4.08,0,0,0,6,0A5,5,0,0,0,66,55.57a4.54,4.54,0,0,0-1.27-3.44A4.09,4.09,0,0,0,61.82,50.92Z"/><path class="cls-1" d="M73.78,52.49l-1.51-1.24a5.06,5.06,0,0,1,1.6-1.57,5.35,5.35,0,0,1,2.75-.7,4.52,4.52,0,0,1,3,.88,3,3,0,0,1,1.09,2.39,2.89,2.89,0,0,1-1.42,2.63,2.73,2.73,0,0,1,1.45.81,3.27,3.27,0,0,1,.88,2.3,3.82,3.82,0,0,1-1.64,3.23,5.94,5.94,0,0,1-3.56,1A5.35,5.35,0,0,1,73,61.13,5.41,5.41,0,0,1,71.36,59l1.88-.78a3.18,3.18,0,0,0,1.11,1.42,3.36,3.36,0,0,0,2.06.63,3.72,3.72,0,0,0,2.11-.48A1.94,1.94,0,0,0,79.4,58a1.59,1.59,0,0,0-.76-1.45,3.79,3.79,0,0,0-2-.43H75.32v-2h1.06A3,3,0,0,0,78,53.82a1.31,1.31,0,0,0,.66-1.15,1.61,1.61,0,0,0-.54-1.3,2.39,2.39,0,0,0-1.6-.45,3.23,3.23,0,0,0-1.72.48A2.9,2.9,0,0,0,73.78,52.49Z"/><path class="cls-1" d="M95.52,60.31a7,7,0,0,1-9.52,0,6.85,6.85,0,0,1,0-9.45,7,7,0,0,1,9.52,0,6.85,6.85,0,0,1,0,9.45Zm-1.63-8.15a4.56,4.56,0,0,0-6.26,0,4.6,4.6,0,0,0-1.28,3.43A4.46,4.46,0,0,0,87.65,59a4.52,4.52,0,0,0,6.22,0,4.46,4.46,0,0,0,1.3-3.41A4.56,4.56,0,0,0,93.89,52.16Z"/><path class="cls-1" d="M100.73,49.29h4.74a4.14,4.14,0,0,1,2.63.72,2.87,2.87,0,0,1,1.09,2.36,2.81,2.81,0,0,1-1.36,2.51,3.51,3.51,0,0,1,1.57.84,3.22,3.22,0,0,1,1,2.42A3.41,3.41,0,0,1,109.1,61a4.81,4.81,0,0,1-3,.84h-5.41Zm2.18,5.1h2.29a2.36,2.36,0,0,0,1.39-.36,1.54,1.54,0,0,0,.61-1.3,1.45,1.45,0,0,0-.61-1.21,3.46,3.46,0,0,0-1.75-.3h-1.93Zm0,5.5h2.68a3.45,3.45,0,0,0,2-.42,1.69,1.69,0,0,0,.72-1.39,1.72,1.72,0,0,0-.63-1.42,3.24,3.24,0,0,0-2-.46h-2.78Z"/><path class="cls-1" d="M123.33,51.07V49.29h2.18V61.82h-2.18V60.07A5.17,5.17,0,0,1,119,62.19a5.94,5.94,0,0,1-4.32-1.76,6.53,6.53,0,0,1-1.78-4.89,6.49,6.49,0,0,1,1.76-4.82A6,6,0,0,1,119,49,5.09,5.09,0,0,1,123.33,51.07Zm-4-.15a3.91,3.91,0,0,0-2.91,1.22,4.66,4.66,0,0,0-1.2,3.4,5.14,5.14,0,0,0,1.1,3.4,4.1,4.1,0,0,0,6,0,5,5,0,0,0,1.13-3.32,4.5,4.5,0,0,0-1.27-3.44A4.06,4.06,0,0,0,119.28,50.92Z"/><path class="cls-1" d="M129.61,61.82V49.29h2.18v5.13h5.92V49.29h2.18V61.82h-2.18v-5.4h-5.92v5.4Z"/><path class="cls-1" d="M144,49.29h2.17v8.27l8.58-9.24v13.5h-2.17V53.46L144,62.7Z"/><path class="cls-1" d="M157.41,61.82l3.9-5.16a2.86,2.86,0,0,1-.5-.06,4.89,4.89,0,0,1-.92-.31,2.85,2.85,0,0,1-1-.63,3.29,3.29,0,0,1-1-2.51A3.65,3.65,0,0,1,159,50.34a5.3,5.3,0,0,1,3.69-1.05h4.38V61.82H164.9v-5h-1.33l-3.56,5ZM164.9,55V51.22h-2a4.14,4.14,0,0,0-2,.33,1.72,1.72,0,0,0-.78,1.54,1.64,1.64,0,0,0,.78,1.51,3.85,3.85,0,0,0,1.94.37Z"/><path class="cls-1" d="M221.26,1.87V4H213v6h8v2.12h-8v7.82h8.22V22H210.81V1.87Z"/><path class="cls-1" d="M234.43,11.27V0h2.18V22h-2.18V20.27a5.17,5.17,0,0,1-4.29,2.12,6,6,0,0,1-4.32-1.75,6.55,6.55,0,0,1-1.78-4.9,6.46,6.46,0,0,1,1.77-4.82,5.91,5.91,0,0,1,4.33-1.73A5.07,5.07,0,0,1,234.43,11.27Zm-4.05-.15a3.93,3.93,0,0,0-2.91,1.22,4.66,4.66,0,0,0-1.2,3.4,5.1,5.1,0,0,0,1.11,3.4,3.68,3.68,0,0,0,3,1.31,3.76,3.76,0,0,0,3-1.35,5,5,0,0,0,1.13-3.33,4.5,4.5,0,0,0-1.27-3.44A4.06,4.06,0,0,0,230.38,11.12Z"/><path class="cls-1" d="M242.89,9.49V16.8a4.48,4.48,0,0,0,.61,2.69,2.62,2.62,0,0,0,2.2,1,2.65,2.65,0,0,0,2.21-1,4.56,4.56,0,0,0,.6-2.69V9.49h2.18V17a5.44,5.44,0,0,1-1.15,3.78,5.48,5.48,0,0,1-7.68,0A5.44,5.44,0,0,1,240.72,17V9.49Z"/><path class="cls-1" d="M264.62,10.39V13a4.76,4.76,0,0,0-3.93-1.87,4.36,4.36,0,0,0-3.14,1.25,4.54,4.54,0,0,0-1.3,3.43,4.5,4.5,0,0,0,1.3,3.42,4.35,4.35,0,0,0,3.11,1.23,5.06,5.06,0,0,0,4-2v2.6a7,7,0,0,1-8.81-.56,6.31,6.31,0,0,1-1.89-4.7,6.43,6.43,0,0,1,1.9-4.76,6.53,6.53,0,0,1,4.81-1.88A6.67,6.67,0,0,1,264.62,10.39Z"/><path class="cls-1" d="M277.64,11.27V9.49h2.17V22h-2.17V20.27a5.17,5.17,0,0,1-4.29,2.12A5.94,5.94,0,0,1,269,20.64a6.56,6.56,0,0,1-1.79-4.9A6.46,6.46,0,0,1,269,10.92a5.93,5.93,0,0,1,4.34-1.73A5.08,5.08,0,0,1,277.64,11.27Zm-4.05-.15a4,4,0,0,0-2.92,1.22,4.69,4.69,0,0,0-1.19,3.4,5.14,5.14,0,0,0,1.1,3.4,4.09,4.09,0,0,0,6,0,5,5,0,0,0,1.14-3.33,4.54,4.54,0,0,0-1.27-3.44A4.07,4.07,0,0,0,273.59,11.12Z"/><path class="cls-1" d="M288.33,11.48h-2.17V22H284V11.48h-1.33v-2H284V5h2.18V9.49h2.17Z"/><path class="cls-1" d="M290.39,5.83a1.45,1.45,0,0,1-.46-1.09,1.44,1.44,0,0,1,.46-1.08,1.51,1.51,0,0,1,2.17,0,1.53,1.53,0,0,1,0,2.17,1.53,1.53,0,0,1-2.17,0Zm0,3.66h2.17V22h-2.17Z"/><path class="cls-1" d="M307.29,20.52a7,7,0,0,1-9.52,0,6.37,6.37,0,0,1-1.89-4.72,6.4,6.4,0,0,1,1.89-4.74,7,7,0,0,1,9.52,0,6.4,6.4,0,0,1,1.89,4.74A6.37,6.37,0,0,1,307.29,20.52Zm-1.63-8.16a4.56,4.56,0,0,0-6.26,0,4.6,4.6,0,0,0-1.28,3.43,4.5,4.5,0,0,0,1.3,3.42,4.55,4.55,0,0,0,6.22,0,4.5,4.5,0,0,0,1.3-3.42A4.56,4.56,0,0,0,305.66,12.36Z"/><path class="cls-1" d="M312.5,22V9.49h2.18v1.45a4.25,4.25,0,0,1,3.59-1.75,4.07,4.07,0,0,1,3.6,1.72,6.06,6.06,0,0,1,.72,3.35V22h-2.17V14.32a3.69,3.69,0,0,0-.58-2.29,2.4,2.4,0,0,0-2-.91,2.73,2.73,0,0,0-2.21,1,5.16,5.16,0,0,0-.9,3.38V22Z"/><path class="cls-1" d="M210.71,61.63V41.47h4.11a11.16,11.16,0,0,1,7.44,2.36,9.55,9.55,0,0,1,3.44,7.73,9.72,9.72,0,0,1-3.54,7.74,9.12,9.12,0,0,1-3.11,1.78,14,14,0,0,1-4.26.55Zm2.24-18V59.51h2a8.71,8.71,0,0,0,5.77-1.81,7.61,7.61,0,0,0,2.72-6.14,7.57,7.57,0,0,0-2.32-5.8,8.67,8.67,0,0,0-6.17-2.17Z"/><path class="cls-1" d="M238.57,57.43l1.81,1a7.07,7.07,0,0,1-1.54,2A6.07,6.07,0,0,1,234.67,62a6,6,0,0,1-6.19-6.56,7,7,0,0,1,1.65-4.76,5.55,5.55,0,0,1,4.42-1.89,5.42,5.42,0,0,1,4.75,2.3,7.66,7.66,0,0,1,1.17,4.71h-9.76a4.38,4.38,0,0,0,1.18,3.09,3.79,3.79,0,0,0,2.81,1.17,3.89,3.89,0,0,0,2.57-.9A5.06,5.06,0,0,0,238.57,57.43ZM230.87,54h7.37A4,4,0,0,0,237,51.61a3.63,3.63,0,0,0-4.8,0A3.89,3.89,0,0,0,230.87,54Z"/><path class="cls-1" d="M250.75,51.05,249,52a1.78,1.78,0,0,0-1.75-1.27,1.63,1.63,0,0,0-1.07.36,1.3,1.3,0,0,0-.44,1.06,1.14,1.14,0,0,0,.41,1,8.2,8.2,0,0,0,1.61.83,8.42,8.42,0,0,1,3.15,1.93,3.13,3.13,0,0,1,.66,2,3.84,3.84,0,0,1-1.22,3,4.65,4.65,0,0,1-3.88,1,8.26,8.26,0,0,1-1.17-.33,3.49,3.49,0,0,1-1.4-1,4.93,4.93,0,0,1-1-1.81L244.7,58a2.65,2.65,0,0,0,2.54,2,1.94,1.94,0,0,0,1.53-.6,2.06,2.06,0,0,0,.53-1.39,1.88,1.88,0,0,0-.14-.74,1.4,1.4,0,0,0-.45-.56,4.39,4.39,0,0,0-.61-.39c-.19-.1-.47-.23-.83-.39a8.75,8.75,0,0,1-3.05-1.85,2.89,2.89,0,0,1-.57-1.84,3.32,3.32,0,0,1,1-2.57,3.74,3.74,0,0,1,2.64-.94A3.58,3.58,0,0,1,250.75,51.05Z"/><path class="cls-1" d="M254.43,45.43a1.48,1.48,0,0,1-.45-1.09,1.51,1.51,0,0,1,.45-1.09,1.55,1.55,0,0,1,2.18,0,1.51,1.51,0,0,1,.45,1.09,1.48,1.48,0,0,1-.45,1.09,1.55,1.55,0,0,1-2.18,0Zm0,3.66h2.18V61.63h-2.18Z"/><path class="cls-1" d="M270.32,50.87V49.09h2.18V61.32a8.24,8.24,0,0,1-1.21,4.93,5.85,5.85,0,0,1-5,2.32,6,6,0,0,1-4.48-1.69,5.54,5.54,0,0,1-1.63-4h2.15a3.78,3.78,0,0,0,1,2.6,3.87,3.87,0,0,0,3,1.21,3.6,3.6,0,0,0,3.32-1.75,6.13,6.13,0,0,0,.69-3.2V59.87A5.14,5.14,0,0,1,266,62a5.85,5.85,0,0,1-4.29-1.69,6.69,6.69,0,0,1-1.81-5,6.55,6.55,0,0,1,1.81-4.86,6,6,0,0,1,4.29-1.7A5.12,5.12,0,0,1,270.32,50.87Zm-4-.15a3.84,3.84,0,0,0-2.84,1.18,4.68,4.68,0,0,0-1.27,3.44A4.75,4.75,0,0,0,263.59,59a3.84,3.84,0,0,0,2.69,1A3.72,3.72,0,0,0,269,59a4.79,4.79,0,0,0,1.42-3.63,4.65,4.65,0,0,0-1.32-3.53A3.85,3.85,0,0,0,266.28,50.72Z"/><path class="cls-1" d="M276.61,61.63V49.09h2.17v1.45a4.29,4.29,0,0,1,3.6-1.76A4,4,0,0,1,286,50.51a6,6,0,0,1,.73,3.35v7.77h-2.18V53.92a3.82,3.82,0,0,0-.57-2.3,2.43,2.43,0,0,0-2.05-.9,2.74,2.74,0,0,0-2.21,1,5.21,5.21,0,0,0-.91,3.39v6.56Z"/><rect class="cls-1" x="187.4" y="1.62" width="3" height="60"/></g></g></svg>